<?xml version="1.0" encoding="utf-8"?>
<!-- Generator: Adobe Illustrator 18.1.1, SVG Export Plug-In . SVG Version: 6.00 Build 0)  -->
<svg version="1.1" id="Layer_1" xmlns="http://www.w3.org/2000/svg" xmlns:xlink="http://www.w3.org/1999/xlink" x="0px" y="0px"
	 viewBox="0 0 107 3.8" enable-background="new 0 0 107 3.8" xml:space="preserve">
<g>
	<path fill="#FFFFFF" d="M57,2.3c27.9,0,50-0.4,50-0.4S84.9,1.5,57,1.5c0,0.1,0,0.3,0,0.4S57,2.2,57,2.3z"/>
	<path fill="#FFFFFF" d="M50,1.5C22.1,1.5,0,1.9,0,1.9s22.1,0.4,50,0.4c0-0.1,0-0.3,0-0.4S50,1.6,50,1.5z"/>
	<path fill="#FFFFFF" d="M53.5,3.8c-1,0-1.9-0.8-1.9-1.9c0-1,0.8-1.9,1.9-1.9c1,0,1.9,0.9,1.9,1.9C55.4,2.9,54.5,3.8,53.5,3.8z"/>
	<path fill="#FFFFFF" d="M55.4,1.9c0-1-0.8-1.9-1.9-1.9c-1,0-1.9,0.9-1.9,1.9c0,1,0.8,1.9,1.9,1.9C54.5,3.8,55.4,2.9,55.4,1.9z"/>
</g>
</svg>
